<?xml version="1.0" encoding="UTF-8" standalone="no"?>
<!-- Created with Inkscape (http://www.inkscape.org/) -->

<svg
   xmlns:dc="http://purl.org/dc/elements/1.1/"
   xmlns:cc="http://creativecommons.org/ns#"
   xmlns:rdf="http://www.w3.org/1999/02/22-rdf-syntax-ns#"
   xmlns:svg="http://www.w3.org/2000/svg"
   xmlns="http://www.w3.org/2000/svg"
   xmlns:sodipodi="http://sodipodi.sourceforge.net/DTD/sodipodi-0.dtd"
   xmlns:inkscape="http://www.inkscape.org/namespaces/inkscape"
   width="700"
   height="360"
   id="svg3104"
   version="1.1"
   inkscape:version="0.48.5 r10040"
   sodipodi:docname="New document 3">
  <defs
     id="defs3106" />
  <sodipodi:namedview
     id="base"
     pagecolor="#ffffff"
     bordercolor="#666666"
     borderopacity="1.0"
     inkscape:pageopacity="0.0"
     inkscape:pageshadow="2"
     inkscape:zoom="0.7"
     inkscape:cx="375"
     inkscape:cy="356.20049"
     inkscape:document-units="px"
     inkscape:current-layer="layer1"
     showgrid="false"
     inkscape:window-width="1680"
     inkscape:window-height="975"
     inkscape:window-x="-9"
     inkscape:window-y="-9"
     inkscape:window-maximized="1" />
  <metadata
     id="metadata3109">
    <rdf:RDF>
      <cc:Work
         rdf:about="">
        <dc:format>image/svg+xml</dc:format>
        <dc:type
           rdf:resource="http://purl.org/dc/dcmitype/StillImage" />
        <dc:title></dc:title>
      </cc:Work>
    </rdf:RDF>
  </metadata>
  <g
     inkscape:label="Layer 1"
     inkscape:groupmode="layer"
     id="layer1"
     transform="translate(0,-692.36218)">
    <flowRoot
       xml:space="preserve"
       id="flowRoot2985"
       style="font-size:100px;font-style:normal;font-variant:normal;font-weight:normal;font-stretch:normal;line-height:125%;letter-spacing:0px;word-spacing:0px;fill:#0088aa;fill-opacity:1;stroke:none;font-family:Segoe UI;-inkscape-font-specification:Segoe UI"
       transform="translate(16.877918,696.48302)"><flowRegion
         id="flowRegion2987"><rect
           id="rect2989"
           width="455.71429"
           height="118.57143"
           x="57.142857"
           y="28.571428"
           style="font-size:100px;fill:#0088aa" /></flowRegion><flowPara
         id="flowPara2991"
         style="font-size:100px;font-style:normal;font-variant:normal;font-weight:normal;font-stretch:normal;fill:#0088aa;font-family:Amatic SC;-inkscape-font-specification:Amatic SC">Emily Uhde</flowPara></flowRoot>    <path
       sodipodi:type="star"
       style="fill:#fcff08;fill-opacity:0.98739492"
       id="path3001"
       sodipodi:sides="5"
       sodipodi:cx="37.142857"
       sodipodi:cy="18.571428"
       sodipodi:r1="15.971914"
       sodipodi:r2="7.9859571"
       sodipodi:arg1="0.46364761"
       sodipodi:arg2="1.0919661"
       inkscape:flatsided="false"
       inkscape:rounded="0"
       inkscape:randomized="0"
       d="M 51.428571,25.714286 40.822317,25.659241 34.764124,34.365214 31.538962,24.261057 21.387005,21.189668 29.999999,15 29.783937,4.3958032 38.332222,10.674535 48.350646,7.1921708 45.020782,17.262308 z"
       transform="translate(10.020775,710.1973)"
       inkscape:transform-center-x="0.73506872"
       inkscape:transform-center-y="0.80908046" />
    <path
       transform="translate(12.877918,697.34016)"
       sodipodi:type="star"
       style="fill:#fcff08;fill-opacity:0.98739492"
       id="path3771"
       sodipodi:sides="5"
       sodipodi:cx="370"
       sodipodi:cy="37.142857"
       sodipodi:r1="21.237242"
       sodipodi:r2="10.618621"
       sodipodi:arg1="0.34302394"
       sodipodi:arg2="0.97134247"
       inkscape:flatsided="false"
       inkscape:rounded="0"
       inkscape:randomized="0"
       d="M 390,44.285714 375.99094,45.910056 369.38708,58.371252 363.5132,45.54979 349.62119,43.119869 360,33.571428 l -1.98187,-13.96297 12.28833,6.920201 12.66714,-6.199669 -2.7842,13.82536 z"
       inkscape:transform-center-x="0.18940299"
       inkscape:transform-center-y="1.8469984" />
    <path
       sodipodi:type="star"
       style="fill:#fcff08;fill-opacity:0.98739492"
       id="path3773"
       sodipodi:sides="5"
       sodipodi:cx="375.71429"
       sodipodi:cy="81.428574"
       sodipodi:r1="7.1428571"
       sodipodi:r2="3.5714288"
       sodipodi:arg1="2.2142974"
       sodipodi:arg2="2.842616"
       inkscape:flatsided="false"
       inkscape:rounded="0"
       inkscape:randomized="0"
       d="m 371.42858,87.142859 0.87272,-4.662348 -3.34597,-3.362082 4.70384,-0.61074 2.16357,-4.221149 2.03441,4.284891 4.68313,0.753268 -3.4465,3.258947 0.73076,4.686695 -4.16447,-2.27075 z"
       transform="translate(14.877918,697.34016)"
       inkscape:transform-center-x="-0.033510674"
       inkscape:transform-center-y="-0.65013301" />
    <path
       sodipodi:type="star"
       style="fill:#fcff08;fill-opacity:0.98739492"
       id="path3777"
       sodipodi:sides="5"
       sodipodi:cx="421.42856"
       sodipodi:cy="147.14285"
       sodipodi:r1="9.1473207"
       sodipodi:r2="4.5736604"
       sodipodi:arg1="0.89605538"
       sodipodi:arg2="1.5243739"
       inkscape:flatsided="false"
       inkscape:rounded="0"
       inkscape:randomized="0"
       d="m 427.14284,154.28571 -5.50204,-2.57412 -5.23969,3.07314 0.74791,-6.0282 -4.54188,-4.0336 5.96428,-1.15151 2.43265,-5.56603 2.93821,5.31653 6.04535,0.59359 -4.14836,4.4373 z"
       transform="translate(30.020775,755.05444)"
       inkscape:transform-center-x="0.13117406"
       inkscape:transform-center-y="-0.74779639" />
    <path
       transform="translate(52.877921,685.9116)"
       sodipodi:type="star"
       style="fill:#fcff08;fill-opacity:0.98739492"
       id="path3781"
       sodipodi:sides="5"
       sodipodi:cx="334.28571"
       sodipodi:cy="158.57143"
       sodipodi:r1="9.583149"
       sodipodi:r2="4.7915745"
       sodipodi:arg1="-2.677945"
       sodipodi:arg2="-2.0496265"
       inkscape:flatsided="false"
       inkscape:rounded="0"
       inkscape:randomized="0"
       d="m 325.71428,154.28571 6.36375,0.033 3.63492,-5.22359 1.93509,6.0625 6.09118,1.84283 -5.1678,3.7138 0.12964,6.36252 -5.12897,-3.76724 -6.01106,2.08942 1.99792,-6.04208 z"
       inkscape:transform-center-x="-0.44104123"
       inkscape:transform-center-y="-0.48544827" />
    <path
       transform="translate(12.877918,697.34016)"
       sodipodi:type="star"
       style="fill:#fcff08;fill-opacity:0.98739492"
       id="path3783"
       sodipodi:sides="5"
       sodipodi:cx="114.28571"
       sodipodi:cy="35.714287"
       sodipodi:r1="10.101525"
       sodipodi:r2="5.0507631"
       sodipodi:arg1="0.14189705"
       sodipodi:arg2="0.77021559"
       inkscape:flatsided="false"
       inkscape:rounded="0"
       inkscape:randomized="0"
       d="m 124.28571,37.142858 -6.37476,2.088225 -1.89372,6.435222 -3.95593,-5.417462 -6.70545,0.187558 3.92986,-5.4364 -2.25047,-6.319305 6.38471,2.057581 5.31459,-4.093102 0.0161,6.708055 z"
       inkscape:transform-center-x="-0.53506842"
       inkscape:transform-center-y="0.44145285" />
    <path
       transform="translate(12.877918,697.34016)"
       sodipodi:type="star"
       style="fill:#fcff08;fill-opacity:0.98739492"
       id="path3785"
       sodipodi:sides="5"
       sodipodi:cx="32.857143"
       sodipodi:cy="104.28571"
       sodipodi:r1="6.3887658"
       sodipodi:r2="3.1943831"
       sodipodi:arg1="1.1071487"
       sodipodi:arg2="1.7354672"
       inkscape:flatsided="false"
       inkscape:rounded="0"
       inkscape:randomized="0"
       d="m 35.714286,110 -3.38079,-2.56312 -4.028056,1.33195 1.392946,-4.00737 -2.511493,-3.41931 4.241679,0.0864 2.475867,-3.445198 1.228556,4.060778 4.041663,1.29007 -3.482389,2.42328 z"
       inkscape:transform-center-x="-0.32363218"
       inkscape:transform-center-y="-0.29402749" />
    <path
       sodipodi:type="star"
       style="fill:#fcff08;fill-opacity:0.98739492"
       id="path3787"
       sodipodi:sides="5"
       sodipodi:cx="31.428572"
       sodipodi:cy="138.57143"
       sodipodi:r1="8.3299313"
       sodipodi:r2="4.1649661"
       sodipodi:arg1="2.1112158"
       sodipodi:arg2="2.7395344"
       inkscape:flatsided="false"
       inkscape:rounded="0"
       inkscape:randomized="0"
       d="m 27.142858,145.71428 0.452872,-5.51305 -4.284778,-3.4985 5.383168,-1.27291 2.003201,-5.15617 2.874108,4.72635 5.522824,0.31181 -3.606871,4.19396 1.410092,5.34888 -5.103277,-2.13434 z"
       transform="translate(4.8779176,699.34016)"
       inkscape:transform-center-x="0.2259688"
       inkscape:transform-center-y="-0.57745766" />
    <path
       sodipodi:type="star"
       style="fill:#fcff08;fill-opacity:0.98739492"
       id="path3789"
       sodipodi:sides="5"
       sodipodi:cx="58.57143"
       sodipodi:cy="152.85715"
       sodipodi:r1="9.583149"
       sodipodi:r2="4.7915745"
       sodipodi:arg1="0.46364761"
       sodipodi:arg2="1.0919661"
       inkscape:flatsided="false"
       inkscape:rounded="0"
       inkscape:randomized="0"
       d="m 67.142859,157.14286 -6.363753,-0.033 -3.634915,5.22359 -1.935098,-6.0625 -6.091174,-1.84283 5.167797,-3.7138 -0.129638,-6.36252 5.128972,3.76724 6.011054,-2.08942 -1.997918,6.04209 z"
       transform="translate(10.877918,699.34016)"
       inkscape:transform-center-x="0.44104123"
       inkscape:transform-center-y="0.48544827" />
    <path
       sodipodi:type="star"
       style="fill:#fcff08;fill-opacity:0.98739492"
       id="path3791"
       sodipodi:sides="5"
       sodipodi:cx="400"
       sodipodi:cy="62.857143"
       sodipodi:r1="8.3299313"
       sodipodi:r2="4.1649661"
       sodipodi:arg1="0.5404195"
       sodipodi:arg2="1.168738"
       inkscape:flatsided="false"
       inkscape:rounded="0"
       inkscape:randomized="0"
       d="m 407.14286,67.142858 -5.51305,-0.452873 -3.4985,4.284778 -1.27292,-5.383168 -5.15616,-2.003201 4.72634,-2.874108 0.31182,-5.522824 4.19396,3.606871 5.34887,-1.410092 -2.13433,5.103277 z"
       transform="translate(31.163633,688.1973)"
       inkscape:transform-center-x="0.57745766"
       inkscape:transform-center-y="0.2259688" />
    <path
       sodipodi:type="star"
       style="fill:#fcff08;fill-opacity:0.98739492"
       id="path3819"
       sodipodi:sides="5"
       sodipodi:cx="891.42859"
       sodipodi:cy="67.14286"
       sodipodi:r1="14.568627"
       sodipodi:r2="7.2843142"
       sodipodi:arg1="0.19739556"
       sodipodi:arg2="0.82571409"
       inkscape:flatsided="false"
       inkscape:rounded="0"
       inkscape:randomized="0"
       d="m 905.7143,70.000003 -9.34671,2.497062 -3.24178,9.115223 -5.26314,-8.117619 -9.67085,-0.266353 6.09391,-7.514027 -2.73514,-9.279838 9.02939,3.473695 7.98044,-5.468902 -0.51344,9.660889 z"
       transform="translate(-434.26494,724.48302)"
       inkscape:transform-center-x="-0.52447111"
       inkscape:transform-center-y="0.8829057" />
    <path
       transform="translate(-9.6935107,753.05444)"
       sodipodi:type="star"
       style="fill:#fcff08;fill-opacity:0.98739492"
       id="path3821"
       sodipodi:sides="5"
       sodipodi:cx="368.57144"
       sodipodi:cy="125.71429"
       sodipodi:r1="5.1507874"
       sodipodi:r2="2.5753939"
       sodipodi:arg1="0.5880026"
       sodipodi:arg2="1.2163211"
       inkscape:flatsided="false"
       inkscape:rounded="0"
       inkscape:randomized="0"
       d="m 372.85716,128.57143 -3.3918,-0.44186 -2.28686,2.54358 -0.62789,-3.36234 -3.12577,-1.38892 3.00374,-1.63617 0.35503,-3.40199 2.4843,2.35113 3.34519,-0.71362 -1.46836,3.08925 z"
       inkscape:transform-center-x="0.43044392"
       inkscape:transform-center-y="0.064152709" />
    <path
       transform="translate(12.877918,697.34016)"
       sodipodi:type="star"
       style="fill:#fcff08;fill-opacity:0.98739492"
       id="path3823"
       sodipodi:sides="5"
       sodipodi:cx="407.14285"
       sodipodi:cy="110"
       sodipodi:r1="7.6930928"
       sodipodi:r2="3.8465464"
       sodipodi:arg1="-1.9513027"
       sodipodi:arg2="-1.3229842"
       inkscape:flatsided="false"
       inkscape:rounded="0"
       inkscape:randomized="0"
       d="m 404.28571,102.85714 3.80064,3.41382 4.96686,-1.19553 -2.07227,4.66955 2.67186,4.35433 -5.08138,-0.52788 -3.31556,3.88665 -1.06818,-4.9958 -4.72099,-1.95224 4.42119,-2.55969 z"
       inkscape:transform-center-x="0.58311166"
       inkscape:transform-center-y="0.15761105" />
    <flowRoot
       xml:space="preserve"
       id="flowRoot2993"
       style="font-size:14px;font-style:normal;font-variant:normal;font-weight:normal;font-stretch:normal;line-height:125%;letter-spacing:0px;word-spacing:0px;fill:#006680;fill-opacity:1;stroke:none;font-family:Segoe UI;-inkscape-font-specification:Segoe UI"
       transform="translate(-751.94119,847.9796)"><flowRegion
         id="flowRegion2995"><rect
           id="rect2997"
           width="674.28571"
           height="130"
           x="740"
           y="71.428574"
           style="fill:#006680" /></flowRegion><flowPara
         id="flowPara2999"
         style="font-size:48px;font-style:normal;font-variant:normal;font-weight:normal;font-stretch:normal;text-align:end;text-anchor:end;fill:#006680;font-family:Amatic SC;-inkscape-font-specification:Amatic SC">I write code because I </flowPara><flowPara
         style="font-size:48px;font-style:normal;font-variant:normal;font-weight:normal;font-stretch:normal;text-align:end;text-anchor:end;fill:#006680;font-family:Amatic SC;-inkscape-font-specification:Amatic SC"
         id="flowPara3241">didn't get into Hogwarts.</flowPara></flowRoot>    <path
       sodipodi:type="star"
       style="fill:#fcff08;fill-opacity:0.98739492"
       id="path3793"
       sodipodi:sides="5"
       sodipodi:cx="1045.7144"
       sodipodi:cy="37.142857"
       sodipodi:r1="7.6930928"
       sodipodi:r2="3.8465464"
       sodipodi:arg1="1.9513027"
       sodipodi:arg2="2.5796212"
       inkscape:flatsided="false"
       inkscape:rounded="0"
       inkscape:randomized="0"
       d="m 1042.8572,44.285714 -0.3978,-5.093204 -4.4212,-2.559693 4.721,-1.952245 1.0682,-4.995795 3.3155,3.886651 5.0814,-0.527878 -2.6719,4.354327 2.0723,4.669548 -4.9668,-1.195529 z"
       transform="translate(-360.79833,954.8367)"
       inkscape:transform-center-x="0.58311166"
       inkscape:transform-center-y="-0.15761105" />
    <path
       sodipodi:type="star"
       style="fill:#fcff08;fill-opacity:0.98739492"
       id="path3795"
       sodipodi:sides="5"
       sodipodi:cx="1002.8571"
       sodipodi:cy="51.42857"
       sodipodi:r1="5.890151"
       sodipodi:r2="2.9450755"
       sodipodi:arg1="1.815775"
       sodipodi:arg2="2.4440935"
       inkscape:flatsided="false"
       inkscape:rounded="0"
       inkscape:randomized="0"
       d="m 1001.4285,57.142856 -0.8286,-3.822656 -3.61884,-1.484471 3.37944,-1.969391 0.2936,-3.900416 2.9173,2.605505 3.8002,-0.926118 -1.5765,3.579681 2.0552,3.328043 -3.8917,-0.393139 z"
       transform="translate(-638.51262,902.26531)"
       inkscape:transform-center-x="0.44145285"
       inkscape:transform-center-y="0.12581912" />
    <path
       sodipodi:type="star"
       style="fill:#fcff08;fill-opacity:0.98739492"
       id="path3797"
       sodipodi:sides="5"
       sodipodi:cx="840"
       sodipodi:cy="44.285713"
       sodipodi:r1="8.689661"
       sodipodi:r2="4.3448305"
       sodipodi:arg1="2.976444"
       sodipodi:arg2="3.6047625"
       inkscape:flatsided="false"
       inkscape:rounded="0"
       inkscape:randomized="0"
       d="m 831.42857,45.714284 4.68437,-3.369781 -0.12031,-5.76925 4.6524,3.413777 5.44971,-1.897215 -1.80903,5.479612 3.48841,4.596707 -5.77044,-0.02719 -3.29375,4.738136 -1.7573,-5.496417 z"
       transform="translate(-585.94119,912.26527)"
       inkscape:transform-center-x="0.39865199"
       inkscape:transform-center-y="0.44145285" />
    <path
       sodipodi:type="star"
       style="fill:#fcff08;fill-opacity:0.98739492"
       id="path3799"
       sodipodi:sides="5"
       sodipodi:cx="780"
       sodipodi:cy="42.857143"
       sodipodi:r1="17.261494"
       sodipodi:r2="8.6307478"
       sodipodi:arg1="-2.7149652"
       sodipodi:arg2="-2.0866466"
       inkscape:flatsided="false"
       inkscape:rounded="0"
       inkscape:randomized="0"
       d="m 764.28571,35.714287 11.45696,-0.364803 6.19461,-9.644778 3.88734,10.783482 11.08697,2.911022 -9.05445,7.029362 0.65752,11.443889 -9.4833,-6.439098 -10.6806,4.16169 3.19344,-11.008943 z"
       transform="translate(-455.65549,880.83677)"
       inkscape:transform-center-x="-0.59865229"
       inkscape:transform-center-y="-1.0685599" />
    <path
       sodipodi:type="star"
       style="fill:#fcff08;fill-opacity:0.98739492"
       id="path3803"
       sodipodi:sides="5"
       sodipodi:cx="790"
       sodipodi:cy="157.14285"
       sodipodi:r1="9.1473207"
       sodipodi:r2="4.5736604"
       sodipodi:arg1="-0.67474094"
       sodipodi:arg2="-0.046422412"
       inkscape:flatsided="false"
       inkscape:rounded="0"
       inkscape:randomized="0"
       d="m 797.14286,151.42857 -2.57413,5.50204 3.07314,5.23969 -6.0282,-0.74791 -4.03359,4.54188 -1.15151,-5.96427 -5.56604,-2.43266 5.31653,-2.93821 0.5936,-6.04535 4.4373,4.14836 z"
       transform="translate(-493.36976,873.12247)"
       inkscape:transform-center-x="0.74779639"
       inkscape:transform-center-y="0.13117406" />
    <path
       sodipodi:type="star"
       style="fill:#fcff08;fill-opacity:0.98739492"
       id="path3805"
       sodipodi:sides="5"
       sodipodi:cx="751.42859"
       sodipodi:cy="148.57143"
       sodipodi:r1="10.400157"
       sodipodi:r2="5.200079"
       sodipodi:arg1="-1.2924967"
       sodipodi:arg2="-0.66417814"
       inkscape:flatsided="false"
       inkscape:rounded="0"
       inkscape:randomized="0"
       d="m 754.28573,138.57143 1.23752,6.7946 6.29881,2.83253 -6.07964,3.2766 -0.74746,6.86582 -4.99494,-4.76955 -6.76076,1.41078 2.99259,-6.22435 -3.43092,-5.99391 6.84447,0.9227 z"
       transform="translate(-508.51262,871.69387)"
       inkscape:transform-center-x="-0.8829057"
       inkscape:transform-center-y="-0.11522181" />
    <path
       sodipodi:type="star"
       style="fill:#fcff08;fill-opacity:0.98739492"
       id="path3807"
       sodipodi:sides="5"
       sodipodi:cx="1395.7144"
       sodipodi:cy="84.285713"
       sodipodi:r1="7.6930928"
       sodipodi:r2="3.8465466"
       sodipodi:arg1="-2.7610863"
       sodipodi:arg2="-2.1327677"
       inkscape:flatsided="false"
       inkscape:rounded="0"
       inkscape:randomized="0"
       d="m 1388.5715,81.42857 5.0932,-0.397829 2.5597,-4.421195 1.9522,4.720989 4.9958,1.068189 -3.8866,3.315561 0.5279,5.081372 -4.3544,-2.67186 -4.6695,2.072272 1.1955,-4.966861 z"
       transform="translate(-733.08405,826.551)"
       inkscape:transform-center-x="-0.15761105"
       inkscape:transform-center-y="-0.58311166" />
    <path
       sodipodi:type="star"
       style="fill:#fcff08;fill-opacity:0.98739492"
       id="path3809"
       sodipodi:sides="5"
       sodipodi:cx="1351.4286"
       sodipodi:cy="38.571426"
       sodipodi:r1="9.035079"
       sodipodi:r2="4.51754"
       sodipodi:arg1="-2.8198421"
       sodipodi:arg2="-2.1915236"
       inkscape:flatsided="false"
       inkscape:rounded="0"
       inkscape:randomized="0"
       d="m 1342.8572,35.714284 5.9439,-0.817676 2.6961,-5.36 2.6144,5.400314 5.9308,0.907822 -4.3281,4.155254 0.9693,5.921065 -5.2893,-2.832227 -5.3317,2.751598 1.0591,-5.905666 z"
       transform="translate(-721.36977,854.551)"
       inkscape:transform-center-x="-0.021194622"
       inkscape:transform-center-y="-0.84259113" />
    <path
       sodipodi:type="star"
       style="fill:#fcff08;fill-opacity:0.98739492"
       id="path3811"
       sodipodi:sides="5"
       sodipodi:cx="1344.2856"
       sodipodi:cy="62.857143"
       sodipodi:r1="15.971914"
       sodipodi:r2="7.9859576"
       sodipodi:arg1="2.9617392"
       sodipodi:arg2="3.5900577"
       inkscape:flatsided="false"
       inkscape:rounded="0"
       inkscape:randomized="0"
       d="m 1328.5714,65.714286 8.518,-6.319717 -0.377,-10.599694 8.6426,6.148228 9.9644,-3.634062 -3.1766,10.119531 6.5354,8.35372 -10.6059,0.105986 -5.9253,8.796945 -3.3782,-10.054028 z"
       transform="translate(-761.65548,833.6939)"
       inkscape:transform-center-x="0.66088754"
       inkscape:transform-center-y="0.8829057" />
    <path
       sodipodi:type="star"
       style="fill:#fcff08;fill-opacity:0.98739492"
       id="path3813"
       sodipodi:sides="5"
       sodipodi:cx="1102.8571"
       sodipodi:cy="60"
       sodipodi:r1="6.3887658"
       sodipodi:r2="3.1943831"
       sodipodi:arg1="-2.0344439"
       sodipodi:arg2="-1.4061254"
       inkscape:flatsided="false"
       inkscape:rounded="0"
       inkscape:randomized="0"
       d="m 1099.9999,54.285714 3.3808,2.563115 4.0281,-1.331945 -1.393,4.00737 2.5115,3.419314 -4.2417,-0.08642 -2.4758,3.445198 -1.2286,-4.060783 -4.0417,-1.290065 3.4824,-2.423277 z"
       transform="translate(-423.08405,816.551)"
       inkscape:transform-center-x="0.32363218"
       inkscape:transform-center-y="0.29402749" />
    <path
       transform="translate(-487.36976,875.12247)"
       sodipodi:type="star"
       style="fill:#fcff08;fill-opacity:0.98739492"
       id="path3815"
       sodipodi:sides="5"
       sodipodi:cx="767.14288"
       sodipodi:cy="117.14286"
       sodipodi:r1="9.583149"
       sodipodi:r2="4.7915745"
       sodipodi:arg1="-2.0344439"
       sodipodi:arg2="-1.4061254"
       inkscape:flatsided="false"
       inkscape:rounded="0"
       inkscape:randomized="0"
       d="m 762.85717,108.57143 5.07119,3.84467 6.04208,-1.99791 -2.08942,6.01105 3.76724,5.12897 -6.36252,-0.12964 -3.7138,5.1678 -1.84283,-6.09117 -6.0625,-1.9351 5.22359,-3.63492 z"
       inkscape:transform-center-x="0.48544827"
       inkscape:transform-center-y="0.44104123" />
    <path
       transform="translate(-467.36976,860.83675)"
       sodipodi:type="star"
       style="fill:#fcff08;fill-opacity:0.98739492"
       id="path3817"
       sodipodi:sides="5"
       sodipodi:cx="861.42859"
       sodipodi:cy="37.142857"
       sodipodi:r1="10.400157"
       sodipodi:r2="5.200079"
       sodipodi:arg1="0.27829966"
       sodipodi:arg2="0.90661819"
       inkscape:flatsided="false"
       inkscape:rounded="0"
       inkscape:randomized="0"
       d="m 871.42859,39.999999 -6.79461,1.237523 -2.83253,6.298805 -3.2766,-6.07964 -6.86582,-0.747455 4.76956,-4.994947 -1.41078,-6.760758 6.22435,2.992594 5.9939,-3.430924 -0.92269,6.844472 z"
       inkscape:transform-center-x="-0.11522181"
       inkscape:transform-center-y="0.8829057" />
  </g>
</svg>
